<svg width="177" height="44" viewBox="0 0 177 44" fill="none" xmlns="http://www.w3.org/2000/svg">
<path d="M35.404 35.648C33.724 35.648 32.272 35.372 31.048 34.82C29.848 34.268 28.864 33.548 28.096 32.66C27.328 31.748 26.752 30.74 26.368 29.636C26.008 28.532 25.828 27.428 25.828 26.324C25.828 24.524 26.236 22.928 27.052 21.536C27.868 20.144 28.996 19.052 30.436 18.26C31.876 17.444 33.532 17.036 35.404 17.036C36.796 17.036 37.996 17.264 39.004 17.72C40.036 18.152 40.876 18.728 41.524 19.448C42.196 20.144 42.688 20.9 43 21.716C43.336 22.532 43.504 23.312 43.504 24.056C43.504 25.376 43.18 26.36 42.532 27.008C41.908 27.632 41.104 27.944 40.12 27.944H31.552C31.6 28.568 31.816 29.096 32.2 29.528C32.608 29.96 33.112 30.296 33.712 30.536C34.312 30.776 34.948 30.896 35.62 30.896C36.196 30.896 36.7 30.872 37.132 30.824C37.564 30.752 37.936 30.668 38.248 30.572C38.56 30.452 38.848 30.344 39.112 30.248C39.376 30.128 39.604 30.032 39.796 29.96C40.012 29.888 40.216 29.84 40.408 29.816C40.768 29.792 41.092 29.9 41.38 30.14C41.692 30.356 41.968 30.692 42.208 31.148C42.376 31.412 42.484 31.664 42.532 31.904C42.604 32.144 42.64 32.384 42.64 32.624C42.64 33.2 42.34 33.716 41.74 34.172C41.164 34.628 40.336 34.988 39.256 35.252C38.2 35.516 36.916 35.648 35.404 35.648ZM31.552 24.992H37.24C37.624 24.992 37.9 24.932 38.068 24.812C38.26 24.668 38.356 24.404 38.356 24.02C38.356 23.588 38.224 23.216 37.96 22.904C37.696 22.568 37.336 22.316 36.88 22.148C36.448 21.956 35.944 21.86 35.368 21.86C34.624 21.86 33.964 22.004 33.388 22.292C32.812 22.58 32.356 22.964 32.02 23.444C31.708 23.924 31.552 24.44 31.552 24.992ZM53.3621 35.468C52.7861 35.468 52.2941 35.36 51.8861 35.144C51.4781 34.928 51.1541 34.592 50.9141 34.136L44.4341 21.212C44.0021 20.348 43.8701 19.64 44.0381 19.088C44.2301 18.512 44.7821 17.996 45.6941 17.54C46.6061 17.108 47.3261 16.964 47.8541 17.108C48.4061 17.228 48.8981 17.78 49.3301 18.764L53.3621 28.16L57.3941 18.908C57.8501 17.876 58.3421 17.276 58.8701 17.108C59.3981 16.94 60.1421 17.096 61.1021 17.576C62.0861 18.032 62.6261 18.572 62.7221 19.196C62.8421 19.796 62.6981 20.492 62.2901 21.284L55.8461 34.136C55.6301 34.592 55.3181 34.928 54.9101 35.144C54.5021 35.36 53.9861 35.468 53.3621 35.468ZM65.0064 21.464C65.0064 21.464 64.9344 21.44 64.7904 21.392C64.6704 21.344 64.5384 21.236 64.3944 21.068C64.2744 20.876 64.2144 20.564 64.2144 20.132C64.2144 19.58 64.2984 19.22 64.4664 19.052C64.6584 18.884 64.8024 18.788 64.8984 18.764C64.9224 18.716 65.1024 18.56 65.4384 18.296C65.7984 18.008 66.0144 17.528 66.0864 16.856C65.8224 16.784 65.5824 16.7 65.3664 16.604C65.1504 16.484 64.9584 16.352 64.7904 16.208C64.5024 15.92 64.3344 15.56 64.2864 15.128C64.2384 14.696 64.2144 14.288 64.2144 13.904C64.2144 13.448 64.2504 13.004 64.3224 12.572C64.4184 12.14 64.6704 11.78 65.0784 11.492C65.5104 11.18 66.2184 11.024 67.2024 11.024C68.3064 11.024 69.0744 11.252 69.5064 11.708C69.7944 11.996 69.9624 12.344 70.0104 12.752C70.0584 13.16 70.0824 13.58 70.0824 14.012C70.0824 14.204 70.0824 14.396 70.0824 14.588C70.0824 14.78 70.0584 14.972 70.0104 15.164C69.9144 16.316 69.6264 17.372 69.1464 18.332C68.6664 19.268 68.0664 20.024 67.3464 20.6C66.6264 21.176 65.8464 21.464 65.0064 21.464ZM78.6943 35.612C78.0463 35.612 77.3383 35.54 76.5703 35.396C75.8263 35.252 75.0943 35.048 74.3743 34.784C73.6543 34.496 73.0543 34.172 72.5743 33.812C72.0943 33.428 71.8183 32.996 71.7463 32.516C71.6983 32.276 71.6983 32.024 71.7463 31.76C71.8183 31.472 71.9383 31.184 72.1063 30.896C72.2743 30.584 72.4783 30.26 72.7183 29.924C72.9103 29.66 73.1263 29.492 73.3663 29.42C73.6063 29.348 73.8823 29.36 74.1943 29.456C74.5783 29.528 74.9623 29.66 75.3463 29.852C75.7543 30.02 76.1503 30.212 76.5343 30.428C76.9423 30.62 77.3623 30.8 77.7943 30.968C78.2263 31.112 78.6703 31.184 79.1263 31.184C79.7983 31.184 80.3143 31.088 80.6743 30.896C81.0583 30.68 81.2503 30.392 81.2503 30.032C81.2503 29.768 81.1663 29.552 80.9983 29.384C80.8543 29.216 80.6383 29.072 80.3503 28.952C80.0863 28.808 79.7743 28.688 79.4143 28.592C79.0543 28.496 78.6583 28.4 78.2263 28.304C77.8183 28.184 77.3983 28.064 76.9663 27.944C76.3663 27.776 75.7903 27.56 75.2383 27.296C74.6863 27.032 74.1823 26.696 73.7263 26.288C73.2703 25.856 72.9103 25.34 72.6463 24.74C72.3823 24.116 72.2503 23.36 72.2503 22.472C72.2503 21.296 72.5263 20.312 73.0783 19.52C73.6303 18.728 74.4343 18.128 75.4903 17.72C76.5463 17.288 77.8303 17.072 79.3423 17.072C79.7743 17.072 80.2063 17.096 80.6383 17.144C81.0703 17.192 81.4903 17.276 81.8983 17.396C82.3303 17.516 82.7503 17.66 83.1583 17.828C83.5663 17.996 83.9743 18.2 84.3823 18.44C85.1023 18.776 85.4743 19.232 85.4983 19.808C85.5223 20.384 85.3183 20.972 84.8863 21.572C84.6223 21.98 84.3463 22.28 84.0583 22.472C83.7703 22.64 83.4703 22.688 83.1583 22.616C82.7743 22.52 82.3543 22.364 81.8983 22.148C81.4663 21.932 80.9983 21.728 80.4943 21.536C80.0143 21.344 79.5343 21.248 79.0543 21.248C78.6463 21.248 78.2983 21.308 78.0103 21.428C77.7223 21.524 77.5063 21.668 77.3623 21.86C77.2183 22.028 77.1463 22.232 77.1463 22.472C77.1463 22.784 77.2303 23.036 77.3983 23.228C77.5903 23.396 77.8423 23.54 78.1543 23.66C78.4663 23.78 78.8263 23.888 79.2343 23.984C79.6423 24.08 80.0863 24.176 80.5663 24.272C81.2143 24.392 81.8743 24.56 82.5463 24.776C83.2423 24.968 83.8663 25.256 84.4183 25.64C84.9943 26.024 85.4503 26.54 85.7863 27.188C86.1463 27.836 86.3263 28.688 86.3263 29.744C86.3263 31.64 85.6663 33.092 84.3463 34.1C83.0263 35.108 81.1423 35.612 78.6943 35.612Z" fill="black"/>
<path d="M92.104 35.324C91.24 35.324 90.616 35.192 90.232 34.928C89.848 34.664 89.62 34.328 89.548 33.92C89.476 33.512 89.44 33.068 89.44 32.588V19.988C89.44 19.508 89.476 19.076 89.548 18.692C89.644 18.284 89.884 17.96 90.268 17.72C90.652 17.456 91.288 17.324 92.176 17.324C93.064 17.324 93.712 17.504 94.12 17.864C94.528 18.2 94.732 18.764 94.732 19.556L94.264 19.952C94.312 19.832 94.456 19.628 94.696 19.34C94.936 19.052 95.248 18.752 95.632 18.44C96.016 18.128 96.46 17.864 96.964 17.648C97.492 17.408 98.056 17.288 98.656 17.288C99.448 17.288 100.156 17.408 100.78 17.648C101.428 17.864 102.004 18.2 102.508 18.656C103.036 19.088 103.492 19.64 103.876 20.312C104.212 19.832 104.62 19.364 105.1 18.908C105.58 18.452 106.144 18.068 106.792 17.756C107.464 17.444 108.208 17.288 109.024 17.288C110.416 17.288 111.592 17.648 112.552 18.368C113.536 19.064 114.28 20.072 114.784 21.392C115.288 22.712 115.54 24.308 115.54 26.18V32.624C115.54 33.08 115.492 33.524 115.396 33.956C115.324 34.364 115.096 34.7 114.712 34.964C114.328 35.204 113.692 35.324 112.804 35.324C111.916 35.324 111.28 35.192 110.896 34.928C110.536 34.664 110.308 34.328 110.212 33.92C110.14 33.488 110.104 33.044 110.104 32.588V26.144C110.104 25.4 110.02 24.776 109.852 24.272C109.684 23.768 109.42 23.384 109.06 23.12C108.724 22.832 108.292 22.688 107.764 22.688C107.212 22.688 106.744 22.82 106.36 23.084C105.976 23.324 105.688 23.708 105.496 24.236C105.304 24.74 105.208 25.388 105.208 26.18V32.624C105.208 33.104 105.148 33.56 105.028 33.992C104.908 34.4 104.644 34.736 104.236 35C103.852 35.24 103.228 35.348 102.364 35.324C101.5 35.3 100.888 35.156 100.528 34.892C100.168 34.628 99.952 34.292 99.88 33.884C99.808 33.452 99.772 33.02 99.772 32.588V26.144C99.772 25.4 99.688 24.776 99.52 24.272C99.352 23.744 99.1 23.348 98.764 23.084C98.428 22.82 97.984 22.688 97.432 22.688C96.832 22.688 96.34 22.844 95.956 23.156C95.572 23.468 95.284 23.888 95.092 24.416C94.924 24.92 94.84 25.496 94.84 26.144V32.624C94.84 33.104 94.792 33.548 94.696 33.956C94.624 34.364 94.396 34.7 94.012 34.964C93.628 35.204 92.992 35.324 92.104 35.324ZM127.014 35.612C125.886 35.612 124.758 35.396 123.63 34.964C122.526 34.508 121.518 33.872 120.606 33.056C119.694 32.24 118.974 31.268 118.446 30.14C117.918 28.988 117.654 27.716 117.654 26.324C117.654 25.028 117.894 23.828 118.374 22.724C118.854 21.596 119.526 20.6 120.39 19.736C121.254 18.872 122.238 18.2 123.342 17.72C124.47 17.216 125.67 16.964 126.942 16.964C128.67 16.964 130.23 17.384 131.622 18.224C133.038 19.04 134.166 20.156 135.006 21.572C135.846 22.988 136.266 24.56 136.266 26.288C136.266 27.752 135.99 29.06 135.438 30.212C134.91 31.34 134.19 32.312 133.278 33.128C132.39 33.944 131.394 34.568 130.29 35C129.21 35.408 128.118 35.612 127.014 35.612ZM126.942 30.176C127.518 30.176 128.106 30.032 128.706 29.744C129.306 29.456 129.81 29.024 130.218 28.448C130.626 27.872 130.83 27.14 130.83 26.252C130.83 25.484 130.662 24.812 130.326 24.236C129.99 23.66 129.522 23.216 128.922 22.904C128.346 22.568 127.674 22.4 126.906 22.4C126.186 22.4 125.538 22.568 124.962 22.904C124.41 23.24 123.954 23.708 123.594 24.308C123.258 24.884 123.09 25.544 123.09 26.288C123.09 27.152 123.282 27.884 123.666 28.484C124.074 29.06 124.578 29.492 125.178 29.78C125.778 30.044 126.366 30.176 126.942 30.176ZM146.188 35.288C145.108 35.288 144.064 35.06 143.056 34.604C142.072 34.124 141.196 33.464 140.428 32.624C139.66 31.784 139.048 30.824 138.592 29.744C138.16 28.64 137.944 27.476 137.944 26.252C137.944 25.076 138.16 23.96 138.592 22.904C139.048 21.824 139.66 20.876 140.428 20.06C141.22 19.22 142.108 18.56 143.092 18.08C144.076 17.6 145.108 17.36 146.188 17.36C147.34 17.36 148.348 17.6 149.212 18.08C150.1 18.536 150.844 19.172 151.444 19.988C152.044 20.804 152.488 21.752 152.776 22.832C153.088 23.912 153.256 25.04 153.28 26.216C153.304 27.44 153.16 28.592 152.848 29.672C152.56 30.752 152.116 31.712 151.516 32.552C150.916 33.392 150.172 34.064 149.284 34.568C148.42 35.048 147.388 35.288 146.188 35.288ZM146.908 29.96C147.556 29.96 148.132 29.804 148.636 29.492C149.164 29.156 149.584 28.712 149.896 28.16C150.232 27.608 150.4 26.996 150.4 26.324C150.4 25.628 150.244 25.016 149.932 24.488C149.62 23.936 149.2 23.504 148.672 23.192C148.144 22.88 147.544 22.724 146.872 22.724C146.224 22.724 145.624 22.88 145.072 23.192C144.544 23.504 144.124 23.936 143.812 24.488C143.524 25.016 143.38 25.628 143.38 26.324C143.38 26.996 143.536 27.608 143.848 28.16C144.16 28.712 144.592 29.156 145.144 29.492C145.696 29.804 146.284 29.96 146.908 29.96ZM153.208 35.324C152.392 35.324 151.78 35.192 151.372 34.928C150.964 34.664 150.7 34.256 150.58 33.704V11.888C150.58 11.432 150.604 11 150.652 10.592C150.724 10.16 150.94 9.812 151.3 9.548C151.66 9.284 152.284 9.152 153.172 9.152C154.06 9.152 154.684 9.284 155.044 9.548C155.428 9.788 155.656 10.112 155.728 10.52C155.824 10.928 155.872 11.372 155.872 11.852V32.588C155.872 33.044 155.824 33.488 155.728 33.92C155.656 34.328 155.428 34.664 155.044 34.928C154.684 35.192 154.072 35.324 153.208 35.324ZM167.767 35.648C166.087 35.648 164.635 35.372 163.411 34.82C162.211 34.268 161.227 33.548 160.459 32.66C159.691 31.748 159.115 30.74 158.731 29.636C158.371 28.532 158.191 27.428 158.191 26.324C158.191 24.524 158.599 22.928 159.415 21.536C160.231 20.144 161.359 19.052 162.799 18.26C164.239 17.444 165.895 17.036 167.767 17.036C169.159 17.036 170.359 17.264 171.367 17.72C172.399 18.152 173.239 18.728 173.887 19.448C174.559 20.144 175.051 20.9 175.363 21.716C175.699 22.532 175.867 23.312 175.867 24.056C175.867 25.376 175.543 26.36 174.895 27.008C174.271 27.632 173.467 27.944 172.483 27.944H163.915C163.963 28.568 164.179 29.096 164.563 29.528C164.971 29.96 165.475 30.296 166.075 30.536C166.675 30.776 167.311 30.896 167.983 30.896C168.559 30.896 169.063 30.872 169.495 30.824C169.927 30.752 170.299 30.668 170.611 30.572C170.923 30.452 171.211 30.344 171.475 30.248C171.739 30.128 171.967 30.032 172.159 29.96C172.375 29.888 172.579 29.84 172.771 29.816C173.131 29.792 173.455 29.9 173.743 30.14C174.055 30.356 174.331 30.692 174.571 31.148C174.739 31.412 174.847 31.664 174.895 31.904C174.967 32.144 175.003 32.384 175.003 32.624C175.003 33.2 174.703 33.716 174.103 34.172C173.527 34.628 172.699 34.988 171.619 35.252C170.563 35.516 169.279 35.648 167.767 35.648ZM163.915 24.992H169.603C169.987 24.992 170.263 24.932 170.431 24.812C170.623 24.668 170.719 24.404 170.719 24.02C170.719 23.588 170.587 23.216 170.323 22.904C170.059 22.568 169.699 22.316 169.243 22.148C168.811 21.956 168.307 21.86 167.731 21.86C166.987 21.86 166.327 22.004 165.751 22.292C165.175 22.58 164.719 22.964 164.383 23.444C164.071 23.924 163.915 24.44 163.915 24.992Z" fill="#1F4BDD"/>
<path d="M3 11C30 11 28.5 36.5 3 34" stroke="black" stroke-width="5" stroke-linecap="round"/>
<circle cx="12" cy="23" r="6" fill="#00E3B1"/>
<path d="M9.93558 24.5303L7.95044 23.3063C7.9093 23.2823 7.86987 23.2428 7.83215 23.188C7.79787 23.1331 7.78072 23.068 7.78072 22.9926C7.78072 22.8931 7.8013 22.8228 7.84244 22.7817C7.88358 22.7371 7.91958 22.7063 7.95044 22.6891L9.94072 21.4651C9.99215 21.4343 10.0436 21.4103 10.095 21.3931C10.1499 21.3726 10.2047 21.376 10.2596 21.4034C10.3179 21.4274 10.3762 21.4891 10.4344 21.5886C10.4962 21.6846 10.5253 21.7634 10.5219 21.8251C10.5184 21.8868 10.4962 21.9383 10.455 21.9794C10.4173 22.0171 10.371 22.0531 10.3162 22.0874L8.82472 22.9977L10.3213 23.9131C10.3727 23.9474 10.419 23.9834 10.4602 24.0211C10.5013 24.0588 10.5236 24.1086 10.527 24.1703C10.5304 24.232 10.4996 24.3126 10.4344 24.412C10.3762 24.508 10.3179 24.568 10.2596 24.592C10.2047 24.6194 10.1499 24.6228 10.095 24.6023C10.0436 24.5851 9.99044 24.5611 9.93558 24.5303ZM12.8082 24.808C12.7225 24.8491 12.6488 24.8697 12.5871 24.8697C12.5288 24.8731 12.4774 24.8543 12.4328 24.8131C12.3917 24.7754 12.3539 24.7171 12.3197 24.6383L10.7202 21.3314C10.6654 21.2183 10.6499 21.1274 10.6739 21.0588C10.7014 20.9903 10.7768 20.9268 10.9002 20.8686C11.0237 20.8103 11.1214 20.7931 11.1934 20.8171C11.2688 20.8411 11.3357 20.9131 11.3939 21.0331L12.9728 24.3143C13.0311 24.4446 13.0465 24.544 13.0191 24.6126C12.9951 24.6846 12.9248 24.7497 12.8082 24.808ZM13.8214 24.5303C13.7665 24.5611 13.7117 24.5851 13.6568 24.6023C13.6054 24.6228 13.5522 24.6194 13.4974 24.592C13.4425 24.568 13.3842 24.508 13.3225 24.412C13.2574 24.3126 13.2265 24.232 13.2299 24.1703C13.2334 24.1086 13.2557 24.0588 13.2968 24.0211C13.3379 23.9834 13.3842 23.9474 13.4357 23.9131L14.9322 22.9977L13.4408 22.0874C13.3859 22.0531 13.3379 22.0171 13.2968 21.9794C13.2591 21.9383 13.2385 21.8868 13.2351 21.8251C13.2351 21.7634 13.2642 21.6846 13.3225 21.5886C13.3808 21.4891 13.4374 21.4274 13.4922 21.4034C13.5505 21.376 13.6054 21.3726 13.6568 21.3931C13.7117 21.4103 13.7648 21.4343 13.8162 21.4651L15.8065 22.6891C15.8408 22.7063 15.8768 22.7371 15.9145 22.7817C15.9557 22.8228 15.9762 22.8931 15.9762 22.9926C15.9762 23.068 15.9574 23.1331 15.9197 23.188C15.8854 23.2428 15.8477 23.2823 15.8065 23.3063L13.8214 24.5303Z" fill="white"/>
<path d="M65.44 21.464C65.44 21.464 65.368 21.44 65.224 21.392C65.104 21.344 64.972 21.236 64.828 21.068C64.708 20.876 64.648 20.564 64.648 20.132C64.648 19.58 64.732 19.22 64.9 19.052C65.092 18.884 65.236 18.788 65.332 18.764C65.356 18.716 65.536 18.56 65.872 18.296C66.232 18.008 66.448 17.528 66.52 16.856C66.256 16.784 66.016 16.7 65.8 16.604C65.584 16.484 65.392 16.352 65.224 16.208C64.936 15.92 64.768 15.56 64.72 15.128C64.672 14.696 64.648 14.288 64.648 13.904C64.648 13.448 64.684 13.004 64.756 12.572C64.852 12.14 65.104 11.78 65.512 11.492C65.944 11.18 66.652 11.024 67.636 11.024C68.74 11.024 69.508 11.252 69.94 11.708C70.228 11.996 70.396 12.344 70.444 12.752C70.492 13.16 70.516 13.58 70.516 14.012C70.516 14.204 70.516 14.396 70.516 14.588C70.516 14.78 70.492 14.972 70.444 15.164C70.348 16.316 70.06 17.372 69.58 18.332C69.1 19.268 68.5 20.024 67.78 20.6C67.06 21.176 66.28 21.464 65.44 21.464Z" fill="#00E3B1"/>
</svg>
